<?xml version="1.0" encoding="utf-8"?>
<!-- Generator: Adobe Illustrator 19.0.0, SVG Export Plug-In . SVG Version: 6.00 Build 0)  -->
<svg xmlns="http://www.w3.org/2000/svg" xmlns:xlink="http://www.w3.org/1999/xlink" version="1.1" id="Layer_1" x="0px" y="0px" viewBox="0 2 98 98" style="enable-background:new 0 2 98 98;" xml:space="preserve" width="512" height="512">
<style type="text/css">
	.st0{fill:url(#SVGID_1_);}
	.st1{fill:url(#SVGID_2_);}
	.st2{fill:url(#SVGID_3_);}
	.st3{fill:url(#SVGID_4_);}
</style>
<g>
	
		<linearGradient id="SVGID_1_" gradientUnits="userSpaceOnUse" x1="49" y1="95.3333" x2="49" y2="10.2053" gradientTransform="matrix(1 0 0 -1 0 104)">
		<stop offset="0" style="stop-color:#00EFD1"/>
		<stop offset="1" style="stop-color:#00ACEA"/>
	</linearGradient>
	<path class="st0" d="M78,27H63v-7c0-2.8-2.2-5-5-5H40c-2.8,0-5,2.2-5,5v7H20c-1.7,0-3,1.3-3,3s1.3,3,3,3h2v51c0,3.9,3.1,7,7,7h40   c3.9,0,7-3.1,7-7V33h2c1.7,0,3-1.3,3-3S79.7,27,78,27z M41,21h16v6H41V21z M70,84c0,0.5-0.5,1-1,1H29c-0.5,0-1-0.5-1-1V33h42V84z"/>
	
		<linearGradient id="SVGID_2_" gradientUnits="userSpaceOnUse" x1="49" y1="95.3333" x2="49" y2="10.2053" gradientTransform="matrix(1 0 0 -1 0 104)">
		<stop offset="0" style="stop-color:#00EFD1"/>
		<stop offset="1" style="stop-color:#00ACEA"/>
	</linearGradient>
	<path class="st1" d="M49,76c1.7,0,3-1.3,3-3V44c0-1.7-1.3-3-3-3s-3,1.3-3,3v29C46,74.7,47.3,76,49,76z"/>
	
		<linearGradient id="SVGID_3_" gradientUnits="userSpaceOnUse" x1="60" y1="95.3333" x2="60" y2="10.2053" gradientTransform="matrix(1 0 0 -1 0 104)">
		<stop offset="0" style="stop-color:#00EFD1"/>
		<stop offset="1" style="stop-color:#00ACEA"/>
	</linearGradient>
	<path class="st2" d="M60,76c1.7,0,3-1.3,3-3V44c0-1.7-1.3-3-3-3s-3,1.3-3,3v29C57,74.7,58.3,76,60,76z"/>
	
		<linearGradient id="SVGID_4_" gradientUnits="userSpaceOnUse" x1="38" y1="95.3333" x2="38" y2="10.2053" gradientTransform="matrix(1 0 0 -1 0 104)">
		<stop offset="0" style="stop-color:#00EFD1"/>
		<stop offset="1" style="stop-color:#00ACEA"/>
	</linearGradient>
	<path class="st3" d="M38,76c1.7,0,3-1.3,3-3V44c0-1.7-1.3-3-3-3s-3,1.3-3,3v29C35,74.7,36.3,76,38,76z"/>
</g>
</svg>
